<svg version="1.1" id="_x32_" xmlns="http://www.w3.org/2000/svg" x="0" y="0" viewBox="0 0 512 512" style="opacity:1;width:256px;height:256px" xml:space="preserve"><style>.st0{fill:#4b4b4b}</style><path class="st0" d="M277.466 220.094c-7.37-.72-14.253-.769-20.695-.295-2.576-10.568-5.28-21.382-8.069-32.507-2.949-11.779-5.534-22.74-7.783-33.006 33.218-33.292 54.707-62.83 59.104-88.646 5.362-31.428-6.904-66.96-41.129-65.603-34.221 1.374-65.66 35.525-54.756 105.242 2.36 15.084 5.374 29.808 8.818 44.433-7.975 6.11-16.748 12.286-26.352 18.454-102.404 65.587-81.836 166.732-54.482 200.899 21.591 27.002 79.141 50.56 131.002 33.685-3.084 36.515-14.209 64.277-30.123 75.672-23.644 16.924-37.063 4.098-36.621-6.838.434-10.945-.176-30.078-13.677-34.184-13.518-4.09-28.434-6.822-41.321 8.222-12.912 15.018-7.064 39.631 4.851 49.185 26.781 21.505 73.979 28.728 116.735-13.644 19.423-19.255 26.278-49.39 24.675-89.914a114.322 114.322 0 0 0 14.9-11.247c58.104-51.933 44.366-153.087-25.077-159.908zM253.441 34.213c34.327 1.637 36.409 44.876-17.431 95.902-12.818-69.366-5.677-97.014 17.431-95.902zm-91.586 308.882c-32.212-49.202-14.106-105.185 34.585-147.606 8-6.978 15.636-13.808 22.879-20.499 4.344 16.277 9.059 32.67 13.84 49.538-37.071 12.908-52.09 47.803-49.002 73.464 4.098 34.184 28.494 39.664 42.163 39.664 13.673 0 19.718-15.051 2.18-20.523-15.3-4.769-18.675-47.894 12.568-64.335 5.636 20.662 11.162 42.355 16.078 65.701 3.39 16.139 5.44 31.812 6.315 46.675-35.242 16.341-77.54 14.705-101.606-22.079zm122.278 9.824c-4.156-30.879-11.493-66.299-20.867-106.077 44.335-1.816 67.922 62.233 32.544 96.253a117.193 117.193 0 0 1-11.677 9.824zM306.951 421.99h195.283v-14.929H307.699a229.515 229.515 0 0 1-.748 14.929z" style="fill:#202020"/><path class="st0" d="M161.777 414.383a149.13 149.13 0 0 1-14.372-7.322H39.615v-63.435h57.726a157.88 157.88 0 0 1-3.927-14.92H39.615v-63.419h53.333a155.937 155.937 0 0 1 3.706-14.92H39.615v-63.435h93.639a190.496 190.496 0 0 1 15.206-14.904H39.615v-63.436h144.898c-.012-.074-.024-.155-.041-.237-.802-5.12-1.329-9.971-1.73-14.682H9.766V421.99h128.588c7.023-4.531 14.851-7.1 23.423-7.607zM350.66 343.627h151.574v-14.92H355.249c-1.236 5.046-2.749 10.036-4.589 14.92zM353.195 261.762c.38 1.161.654 2.356.998 3.526h148.041v-14.92H348.672a102.154 102.154 0 0 1 4.523 11.394zM311.805 93.673c-2.2 4.85-4.834 9.824-7.885 14.92h198.314v-14.92H311.805zM268.006 182.449c.38 1.522.744 2.986 1.121 4.483h233.107v-14.904H265.437c.826 3.411 1.681 6.904 2.569 10.421z" style="fill:#202020"/></svg>