<svg version="1.1" id="_x32_" xmlns="http://www.w3.org/2000/svg" x="0" y="0" viewBox="0 0 512 512" style="opacity:1;width:256px;height:256px" xml:space="preserve"><style>.st0{fill:#4b4b4b}</style><path class="st0" d="m391.399 325.833-43.736-10.636c2.687-2.494 4.14-5.153 4.14-7.904 0-14.578-40.576-26.397-90.635-26.397-50.058 0-90.635 11.819-90.635 26.397 0 2.751 1.458 5.41 4.144 7.904l-43.736 10.636 130.226 44.002 130.232-44.002zm-86.271-24.416c0 7.069-19.68 12.799-43.96 12.799-24.284 0-43.965-5.73-43.965-12.799 0-7.07 19.681-12.809 43.965-12.809 24.28 0 43.96 5.739 43.96 12.809zM391.399 412.187v-74.268l-131.992 45.762V483.173l-142.97-51.319v-16.88l-25.779 6.263v29.523L261.975 512l171.321-61.24v-29.523z" style="fill:#f0f0f0"/><path class="st0" style="fill:#f0f0f0" d="m130.941 421.585 116.616 41.095v-78.999l-116.616-41.096zM195.189 249.328c33.838-17.714 86.21-41.883 136.97-30.606 43.268 9.61 60.781 17.998 49.952 51.566l-74.585-15.486c-1.728-7.51-8.426-13.12-16.458-13.12-9.343 0-16.922 7.573-16.922 16.916 0 9.352 7.579 16.917 16.922 16.917 5.418 0 10.191-2.586 13.29-6.556l73.728 15.019-9.669 26.59 21.754 4.832s4.772-14.22 12.891-50.759c9.668-43.506-5.639-60.424-56.403-82.182-49.086-21.033-93.459-81.374-111.187-106.35 4.025 31.422-1.618 62.862-7.147 87.435-5.671 25.214-19.443 68.867-33.136 85.784zM117.922 291.413c35.364 7.95 78.665-50.668 96.714-130.95C232.68 80.197 218.656 8.662 183.287.721c-35.35-7.95-78.655 50.677-96.709 130.951-18.05 80.265-4.016 151.783 31.344 159.741zm79.755-134.297c-7.996 35.557-27.176 61.524-42.842 57.994-15.656-3.521-21.881-35.191-13.882-70.748 7.996-35.557 27.176-61.523 42.833-58.002 15.671 3.52 21.883 35.208 13.891 70.756z"/></svg>