<svg version="1.1" id="_x32_" xmlns="http://www.w3.org/2000/svg" x="0" y="0" viewBox="0 0 512 512" style="opacity:1;width:256px;height:256px" xml:space="preserve"><path d="M452.859 25.431H59.141C26.471 25.446.016 51.91 0 84.564v342.88c.016 32.655 26.471 59.117 59.141 59.125h393.718c32.67-.008 59.125-26.47 59.141-59.125V84.564c-.016-32.654-26.471-59.118-59.141-59.133zm-19.422 58.892c9.906 0 17.943 8.037 17.943 17.943s-8.037 17.943-17.943 17.943-17.943-8.038-17.943-17.943c0-9.906 8.036-17.943 17.943-17.943zm-85.728 0c9.906 0 17.943 8.037 17.943 17.943s-8.037 17.943-17.943 17.943-17.943-8.038-17.943-17.943c0-9.906 8.037-17.943 17.943-17.943zM122.112 461.048H59.141c-9.33 0-17.647-3.738-23.769-9.844-6.105-6.122-9.844-14.438-9.844-23.761V182.012h69.218V308.96c0 7.795 6.324 14.135 14.127 14.135h13.239v137.953zm125.913 0H138.062V323.096h14.844c7.803 0 14.127-6.34 14.127-14.135V182.012h53.627V308.96c0 7.795 6.323 14.135 14.126 14.135h13.24v137.953zm125.913 0H263.975V323.096h14.851c7.795 0 14.119-6.34 14.119-14.135V182.012h53.634V308.96c0 7.795 6.324 14.135 14.119 14.135h13.24v137.953zm112.534-33.604c0 9.322-3.739 17.639-9.844 23.761-6.122 6.105-14.438 9.844-23.769 9.844h-62.971V323.096h14.858c7.804 0 14.127-6.34 14.127-14.135V182.012h67.598v245.432z" style="fill:#202020"/></svg>